

<svg version="1.0" xmlns="http://www.w3.org/2000/svg"
 width="66.000000pt" height="49.000000pt" viewBox="0 0 500.000000 500.000000"
 preserveAspectRatio="xMidYMid meet">

<g transform="translate(0.000000,500.000000) scale(0.100000,-0.100000)"
fill="#A51E45" stroke="none" >
<path d="M0 2500 l0 -2500 2500 0 2500 0 0 2500 0 2500 -2500 0 -2500 0 0
-2500z m2671 1273 c82 -40 140 -102 182 -191 30 -64 31 -73 35 -222 4 -136 7
-159 25 -190 l22 -35 -35 21 c-19 12 -50 43 -67 69 -32 45 -33 51 -33 146 0
122 -23 192 -87 260 -150 161 -413 105 -492 -105 -17 -47 -21 -79 -21 -184 0
-70 -5 -144 -11 -165 -13 -48 -61 -102 -112 -129 l-41 -20 27 31 c39 46 47 90
47 248 0 157 11 224 46 295 45 89 105 144 203 185 48 20 70 23 151 21 85 -3
103 -7 161 -35z m-667 -959 c33 -13 14 -24 -39 -24 -41 0 -55 -4 -55 -14 0
-10 14 -16 43 -18 23 -2 42 -7 42 -13 0 -5 -19 -11 -42 -13 -34 -3 -43 -7 -43
-22 0 -15 9 -19 47 -22 26 -2 48 -9 51 -15 3 -10 -14 -13 -62 -13 l-66 0 0 73
c0 41 3 77 7 80 8 9 96 9 117 1z m510 -14 c5 -5 -1 -11 -18 -16 -25 -6 -26 -9
-26 -71 0 -88 -23 -82 -30 8 -4 54 -8 64 -25 67 -36 6 -46 12 -39 23 8 13 122
5 138 -11z m578 -10 c34 -35 33 -68 -4 -107 -45 -48 -138 -18 -154 49 -9 40
41 88 91 88 27 0 44 -8 67 -30z m-842 -45 l0 -65 41 0 c57 0 46 -24 -14 -28
l-46 -3 -6 45 c-8 51 1 116 15 116 6 0 10 -29 10 -65z m611 54 c29 -15 42 -57
29 -90 -14 -33 -55 -51 -106 -47 l-39 3 -3 73 -3 72 51 0 c28 0 60 -5 71 -11z
m427 -5 c23 -16 30 -44 12 -44 -6 0 -13 6 -16 14 -16 41 -104 19 -104 -27 1
-51 50 -71 93 -36 35 27 44 20 16 -14 -29 -38 -89 -38 -118 -1 -42 54 -10 124
58 124 20 0 47 -7 59 -16z m-1578 -18 c0 -21 6 -24 47 -29 57 -6 63 -3 63 29
0 13 5 24 10 24 6 0 10 -28 10 -65 0 -37 -4 -65 -10 -65 -5 0 -10 11 -10 26 0
24 -2 25 -52 22 -52 -3 -53 -4 -56 -35 -6 -63 -22 -32 -22 42 0 43 4 75 10 75
6 0 10 -11 10 -24z m456 -43 c13 -29 24 -58 24 -63 0 -15 -21 -12 -34 4 -6 8
-21 17 -33 21 -18 5 -25 1 -35 -19 -6 -14 -15 -26 -20 -26 -15 0 -8 40 13 83
42 82 49 82 85 0z m412 39 c2 -13 11 -22 21 -22 10 0 33 -3 50 -6 29 -6 31 -5
31 25 0 17 5 31 10 31 9 0 12 -20 14 -102 1 -12 -5 -23 -11 -25 -8 -3 -13 5
-13 21 0 24 -3 26 -49 26 -48 0 -50 -1 -53 -32 -2 -17 -9 -33 -15 -36 -10 -3
-13 16 -13 73 0 57 3 76 13 73 6 -3 13 -14 15 -26z m414 -409 c-25 -44 -27
-59 -30 -179 l-4 -131 49 -12 c110 -28 195 -98 257 -212 26 -48 36 -78 35
-105 -1 -22 8 -77 21 -123 50 -189 3 -323 -139 -396 -27 -13 -51 -31 -55 -40
-4 -12 -17 -15 -48 -13 -40 3 -43 5 -46 35 -4 44 26 60 79 43 33 -11 41 -10
72 9 89 55 147 165 133 255 -15 95 -49 196 -68 202 -10 3 -32 33 -49 66 -37
73 -99 142 -154 171 -32 17 -57 22 -125 22 -74 0 -91 -3 -131 -27 -58 -34
-111 -93 -145 -160 -14 -29 -37 -62 -50 -73 -18 -15 -31 -46 -50 -120 -34
-137 -22 -202 50 -283 49 -54 96 -76 130 -61 53 24 110 -25 76 -66 -18 -21
-76 -19 -92 4 -7 10 -32 28 -54 39 -57 29 -103 77 -130 137 -31 66 -31 152 -1
267 13 48 22 101 19 117 -3 20 6 49 29 91 62 116 149 191 255 219 l42 11 3
108 c4 95 7 112 32 154 24 41 87 98 109 98 3 0 -5 -21 -20 -47z m-851 -110
c56 -61 59 -70 59 -193 l1 -115 42 -20 c110 -52 141 -209 60 -306 -43 -50 -97
-72 -169 -67 -52 3 -70 9 -101 34 -54 44 -83 99 -83 159 0 87 46 157 123 190
l37 15 0 144 c0 136 -1 145 -25 180 l-25 36 28 -14 c15 -8 39 -27 53 -43z" />

<path d="M2990 2778 c-40 -43 -18 -92 41 -90 40 1 59 18 59 54 0 24 -6 32 -35
44 -43 18 -40 18 -65 -8z" />
<path d="M2770 2735 c0 -60 -1 -59 52 -45 50 14 60 46 24 77 -15 13 -38 23
-52 23 -23 0 -24 -3 -24 -55z" />
<path d="M2095 1880 c-73 -30 -108 -136 -66 -203 70 -114 246 -74 258 60 3 36
-1 56 -16 81 -38 60 -116 88 -176 62z m95 -45 c59 -31 69 -107 21 -156 -33
-33 -67 -37 -111 -14 -70 36 -67 134 5 173 28 16 51 15 85 -3z" />
</g>
</svg>
